PathFileType	4	(X/Y/Z)	C:/Users/beibeiliu/ov580/test_trc\sequence.9_training_dense_left.trc
DataRate	CameraRate	NumFrames	NumMarkers	Units	OrigDataRate	OrigDataStartFrame	OrigNumFrames
120	120	24	19	mm	120	76	200
Frame#	Time	ThumbCMC			ThumbMCP			ThumbIP			ThumbTip			IndexMCP			IndexPIP			IndexTip			MiddleMCP			MiddlePIP			MiddleTip			RingMCP			RingPIP			RingTip			PinkyMCP			PinkyPIP			PinkyTip			BackHand1			BackHand2			BackHand3	
		X0	Y0	Z0	X1	Y1	Z1	X2	Y2	Z2	X3	Y3	Z3	X4	Y4	Z4	X5	Y5	Z5	X6	Y6	Z6	X7	Y7	Z7	X8	Y8	Z8	X9	Y9	Z9	X10	Y10	Z10	X11	Y11	Z11	X12	Y12	Z12	X13	Y13	Z13	X14	Y14	Z14	X15	Y15	Z15	X16	Y16	Z16	X17	Y17	Z17	X18	Y18	Z18	
75	0.625	-222.364	34.8511	122.571	-198.355	43.2037	103.041	-186.482	52.7459	81.184	-174.826	51.5883	59.6033	-220.4	22.4467	49.7276	-190.533	28.0318	37.1983	-163.844	32.905	47.2843	-227.112	2.52787	41.8609	-207.671	1.56933	18.7251	-176.081	7.8259	4.99751	-224.3	-20.0545	47.8514	-214.401	-17.4134	21.6111	-191.797	-15.5673	-1.4773	-216.812	-35.7191	63.4297	-210.894	-43.2381	40.0268	-203.41	-40.1441	13.3973	-239.051	-20.6309	94.7047	-245.849	-23.0901	128.315	-249.649	5.03345	113.006	
76	0.633333	-222.085	35.608	120.502	-198.567	45.2336	104.529	-186.579	49.855	80.1301	-174.983	53.4165	58.8135	-222.304	28.748	51.6277	-193.06	33.8081	36.3669	-164.948	30.7757	47.6567	-226.234	2.77579	39.8615	-206.862	1.73778	18.0107	-179.439	9.28778	5.75933	-225.674	-16.018	48.4537	-212.229	-20.4189	19.7962	-193.47	-16.644	1.82801	-217.581	-38.1811	61.0519	-211.136	-42.4373	39.6007	-202.077	-41.7591	10.282	-238.551	-22.0471	99.0894	-245.148	-27.5819	123.457	-249.589	5.1227	108.28	
77	0.641667	-222.393	30.4347	123.075	-198.944	41.2893	103.284	-184.766	51.649	81.4651	-175.046	51.703	60.9694	-221.085	23.5454	51.0819	-192.2	30.121	36.6084	-162.57	29.5466	49.5307	-226.616	2.45608	41.8546	-208.241	2.74044	20.2293	-177.712	4.82889	7.47957	-223.916	-18.9685	47.19	-210.194	-21.4068	20.2517	-190.923	-16.4391	-0.291765	-218.173	-36.9042	60.0067	-210.54	-41.5208	37.1603	-201.772	-40.3336	15.3798	-240.609	-25.3085	96.7722	-243.917	-27.5965	126.225	-249.345	3.26682	109.08	
78	0.65	-221.443	33.6865	124.641	-197.873	41.4589	101.959	-184.64	49.0414	81.9683	-174.659	47.9349	60.305	-219.084	24.4887	50.4555	-194.373	31.2752	37.0714	-165.32	30.3455	48.1209	-225.634	-2.3279	45.0742	-204.259	2.52929	17.878	-178.041	8.34337	6.52583	-224.134	-19.6493	50.7575	-210.628	-23.1727	21.6494	-193.178	-17.7377	3.38421	-215.817	-37.3912	64.8499	-209.153	-42.3807	36.4386	-200.797	-43.4853	14.1607	-237.75	-22.9785	100.559	-242.303	-26.7633	125.715	-247.227	5.98902	111.914	
79	0.658333	-219.437	30.773	122.943	-196.043	41.7318	104.321	-182.016	51.9284	82.0929	-171.795	50.0429	60.5185	-218.778	22.1569	52.0641	-188.505	28.2309	38.3077	-163.635	30.2005	48.1425	-223.268	-2.37601	43.3261	-206.219	2.43633	20.8614	-176.454	4.58186	8.05572	-223.075	-20.053	45.8868	-209.188	-23.9285	22.6532	-191.625	-17.2208	3.19486	-215.284	-39.2767	63.1095	-208.619	-46.0239	40.7521	-198.851	-45.8678	16.4876	-235.869	-26.3053	100.693	-243.554	-26.8106	124.923	-247.609	3.91145	111.111	
80	0.666667	-217.712	29.1565	122.296	-194.454	44.1146	107.177	-181.935	48.0554	81.4216	-170.154	46.7368	62.2899	-215.213	22.893	47.821	-186.125	26.9345	37.1886	-159.697	30.4086	50.6645	-221.333	-2.38577	42.5142	-201.935	-0.398475	18.0191	-174.491	5.29075	7.70472	-220.998	-19.9706	48.936	-209.804	-21.9528	24.2278	-187.421	-16.805	1.40441	-213.393	-44.0267	60.5056	-206.907	-43.8171	40.5322	-196.769	-49.4766	15.993	-236.058	-28.1608	94.3581	-240.743	-25.0136	125.869	-245.088	4.17217	111.778	
81	0.675	-215.568	29.155	122.825	-191.765	38.5678	103.282	-179.523	45.4644	79.8061	-168.072	42.8491	60.2635	-214.743	18.8496	49.5838	-188.142	20.6386	35.3811	-157.985	20.7486	49.0881	-220.223	-3.10901	41.0299	-201.778	-1.08986	17.1844	-171.209	-2.96922	5.86888	-218.669	-26.5306	48.1445	-207.581	-30.045	23.0098	-185.289	-22.1614	-0.607782	-212.118	-43.1913	57.9739	-205.601	-48.3356	37.6898	-193.993	-55.7264	13.3913	-233.787	-32.2631	96.5394	-237.68	-33.6915	124.158	-242.135	-0.253852	110.012	
82	0.683333	-213.553	22.0541	119.833	-190.476	29.7604	103.786	-176.341	36.7605	76.4969	-167.568	32.9051	55.4594	-212.832	13.2152	46.4239	-186.026	16.4595	33.1609	-156.671	12.9204	45.0103	-218.591	-11.8912	42.5172	-196.296	-10.1229	15.0424	-166.728	-9.61991	4.69966	-216.333	-32.8671	45.5127	-203.362	-37.4028	21.5488	-184.045	-29.118	0.0245669	-208.998	-50.351	62.2197	-202.693	-57.1539	37.8258	-191.86	-60.9706	15.0467	-232.385	-34.386	92.6415	-237.692	-36.0573	123.33	-241.639	-7.57375	110.232	
83	0.691667	-209.667	15.0339	119.481	-185.647	28.0095	99.2495	-173.95	30.6818	74.6197	-162.613	28.9068	51.8977	-209.326	7.18722	44.8316	-181.257	8.88658	30.0968	-152.658	9.23022	40.8351	-213.286	-20.2146	35.6896	-192.607	-19.7562	14.0985	-164.395	-16.9134	3.64124	-212.3	-38.0449	44.4634	-199.377	-42.1015	19.3061	-177.328	-38.5512	-2.5663	-204.5	-58.1767	59.339	-197.071	-64.8928	36.8778	-187.62	-63.7542	10.6149	-226.687	-42.7532	91.1775	-231.793	-44.2938	121.495	-237.381	-11.3083	105.474	
84	0.7	-204.039	10.6935	112.194	-179.332	20.8638	93.8023	-166.294	29.0815	70.8788	-155.688	23.5493	50.2028	-204.129	-0.162541	41.5865	-172.425	1.02834	27.4838	-147.349	3.86462	37.2558	-206.78	-22.9676	32.62	-188.443	-26.3451	11.655	-157.265	-20.6102	-0.294187	-205.965	-46.1546	40.0219	-191.184	-45.8475	13.3417	-169.949	-42.116	-5.57381	-200.226	-61.9356	53.438	-190.556	-70.9086	32.8887	-182.07	-69.8203	8.44636	-222.942	-50.3757	87.5858	-226.612	-48.5824	120.489	-231.823	-16.4892	102.328	
85	0.708333	-196.732	1.99136	112.065	-173.358	8.89585	90.9315	-160.381	14.6252	69.3098	-149.363	14.2135	46.514	-195.72	-11.4267	37.791	-171.067	-9.12241	24.8296	-140.913	-7.29653	36.3328	-201.796	-33.0419	32.679	-179.499	-32.6338	7.94288	-151.679	-29.9602	-1.0665	-199.147	-57.0993	37.9501	-186.036	-54.0869	12.5906	-161.383	-53.5224	-6.99206	-192.923	-75.415	50.5156	-184.155	-77.9712	31.0425	-171.503	-81.4149	3.52336	-214.559	-59.3254	88.6334	-220.334	-56.1957	114.751	-224.727	-25.2396	103.182	
86	0.716667	-190.919	-8.976	109.619	-166.864	1.5129	88.2921	-154.018	9.85403	67.8679	-142.859	4.87815	40.5679	-190.207	-22.1592	36.7171	-162.692	-14.908	20.5488	-132.711	-14.8048	34.775	-194.588	-46.7157	32.0199	-175.725	-43.91	8.02011	-140.722	-41.0529	-4.4819	-191.988	-63.9536	36.155	-176.39	-66.4814	8.89887	-157.283	-63.9262	-7.06279	-186.141	-80.5815	50.2885	-176.969	-83.8551	25.6752	-164.816	-90.7556	4.29639	-206.75	-67.9975	88.2647	-214.673	-64.7493	112.029	-219.436	-33.9297	98.9364	
87	0.725	-184.144	-15.187	105.808	-159.663	-5.40267	84.4136	-148.297	-4.23619	61.6088	-136.235	-2.01595	39.4622	-183.704	-31.0286	30.9148	-157.511	-27.8851	17.4977	-127.427	-24.9987	30.5469	-189.119	-52.3832	25.8986	-169.518	-51.496	3.43064	-139.491	-49.8582	-5.6207	-186.731	-75.7896	34.2272	-173.49	-74.6014	8.70073	-150.024	-71.3751	-10.4964	-180.409	-89.1434	48.918	-170.86	-96.4035	23.7255	-158.842	-99.1771	2.78141	-203.3	-76.4823	84.4746	-208.594	-73.9285	114.402	-213.328	-42.8768	95.8093	
88	0.733333	-179.356	-19.1677	99.4405	-155.979	-11.3737	81.1361	-142.022	-3.45552	54.6386	-131.367	-10.811	33.2643	-179.779	-36.2857	29.8015	-149.622	-29.9808	13.6408	-123.668	-31.5624	25.4479	-182.196	-60.6531	21.0289	-161.358	-58.8237	-0.818583	-135.148	-53.6007	-10.349	-180.407	-81.0087	32.788	-168.385	-79.9028	6.82749	-145.697	-77.8889	-12.3652	-175.452	-93.7837	45.6791	-166.96	-99.4029	23.5527	-153.774	-105.893	1.22008	-198.401	-78.3479	82.2345	-203.3	-79.0143	108.939	-206.565	-46.2149	88.1078	
89	0.741667	-174.07	-20.1909	96.7322	-151.574	-11.4727	78.0617	-137.948	-7.1433	53.5302	-127.142	-8.78261	34.9385	-173.79	-35.9459	26.3735	-144.991	-31.2727	11.6174	-116.53	-27.3352	23.5596	-177.422	-60.1745	18.6508	-157.343	-56.6341	-3.59344	-128.349	-56.1428	-13.7806	-176.74	-78.2504	28.0429	-163.448	-82.2195	2.8162	-141.681	-76.2997	-15.2394	-169.728	-97.1656	46.0394	-161.498	-101.054	20.2213	-148.555	-102.195	-4.23868	-191.699	-81.0615	79.1383	-198.276	-80.0774	107.083	-202.629	-46.3214	86.0178	
90	0.75	-171.27	-16.7976	98.8446	-147.707	-12.3919	77.9792	-132.211	-4.09007	52.0289	-123.011	-12.4641	31.5546	-171.816	-36.9573	26.5439	-145.65	-32.8869	9.77575	-113.725	-31.0385	23.546	-175.229	-58.2983	22.8149	-156.688	-58.6895	-1.51769	-123.538	-56.6212	-14.2024	-174.573	-76.8942	30.1205	-160.957	-81.2993	1.99047	-135.054	-79.4275	-18.615	-167.616	-98.242	41.4084	-161.042	-99.7403	20.7929	-148.174	-102.755	-1.88747	-189.244	-75.1294	78.0681	-193.894	-79.073	104.243	-200.808	-43.7971	86.9949	
91	0.758333	-171.004	-18.7359	98.3162	-146.315	-10.934	78.8788	-131.901	-6.74413	55.9121	-122.316	-14.1862	35.5493	-168.151	-35.9658	23.5016	-142.946	-36.0926	11.5848	-113.843	-33.7218	23.1959	-175.502	-58.7517	23.5193	-152.433	-59.8472	-3.49209	-122.813	-59.9796	-13.2559	-173.894	-80.8941	25.5066	-159.737	-86.2545	4.44336	-136.036	-83.9552	-14.3898	-167.023	-96.9513	46.8888	-158.553	-104.833	21.2586	-145.772	-108.728	-3.48904	-190.091	-78.1436	77.3906	-196.033	-78.7568	103.815	-197.621	-47.804	85.9306	
92	0.766667	-170.163	-23.952	100.868	-146.627	-19.8692	82.2271	-132.515	-13.0187	55.0584	-122.953	-21.9988	35.2769	-169.583	-42.8423	29.2839	-141.389	-40.4029	12.8237	-115.232	-40.8078	23.5754	-174.489	-67.4119	24.2808	-153.15	-67.5097	0.870298	-121.793	-62.5849	-11.4847	-173.331	-87.1288	29.8516	-158.158	-89.7918	4.63172	-138.447	-85.6653	-12.4001	-167.917	-103.178	46.5876	-159.682	-107.417	23.2238	-146.142	-109.042	-2.38682	-189.131	-85.4789	80.5373	-196.637	-80.7981	110.117	-197.541	-54.7154	91.9465	
93	0.775	-170.501	-27.2499	102.228	-146.271	-20.6644	79.9539	-133.221	-16.579	60.2357	-121.523	-18.4442	37.5515	-171.647	-41.4271	30.6181	-144.033	-40.6802	14.1692	-112.448	-39.4368	25.881	-173.767	-65.8721	22.0675	-155.116	-67.2952	2.13233	-122.971	-67.4462	-7.7824	-172.937	-89.282	29.2153	-159.715	-91.1089	8.33649	-136.134	-85.1588	-12.1232	-168.992	-101.573	47.0866	-159.995	-107.917	23.4972	-145.103	-111.198	-0.600539	-191.974	-83.059	80.787	-195.93	-80.5792	109.035	-199.754	-53.9833	91.8685	
94	0.783333	-171.445	-28.1594	103.241	-144.748	-15.2973	83.233	-130.217	-12.8862	57.4863	-120.688	-20.295	40.0052	-167.852	-38.7282	28.5553	-141.887	-41.0779	15.6415	-114.082	-38.8357	26.1835	-173.77	-62.8828	22.4571	-152.643	-63.2352	0.925274	-119.953	-65.2956	-7.79745	-172.889	-86.7005	31.0334	-159.809	-88.2081	8.7382	-133.392	-87.867	-11.8482	-167.41	-101.129	47.362	-157.939	-112.229	28.2687	-145.091	-114.56	1.09388	-189.191	-81.0746	82.6371	-196.959	-81.8687	109.603	-198.05	-54.8151	91.9586	
95	0.791667	-166.829	-25.742	103.063	-139.449	-14.7288	87.4385	-124.806	-14.8165	61.0856	-110.408	-18.0471	43.5551	-162.992	-38.0791	27.7358	-134.941	-39.1794	16.6107	-106.208	-39.2991	31.4164	-169.473	-64.5334	23.6818	-151.833	-62.5865	3.57271	-116.92	-63.8129	-5.99552	-168.576	-86.1417	31.61	-155.826	-88.4433	10.5481	-132.374	-86.3559	-8.1008	-163.525	-103.09	51.3618	-152.038	-110	23.3561	-140.596	-110.157	1.75552	-187.286	-82.7103	79.5237	-191.987	-78.6939	110.174	-196.202	-47.6035	90.553	
96	0.8	-158.951	-26.5829	103.16	-130.995	-20.9439	86.9456	-110.655	-15.1269	63.8521	-99.8904	-25.3307	46.0013	-157.379	-38.0994	31.7765	-128.648	-34.8914	17.5339	-98.7909	-38.7386	32.0647	-163.415	-64.1331	28.5312	-142.454	-65.4866	3.63584	-113.667	-63.7001	-5.57208	-163.853	-81.8692	31.9118	-148.708	-85.4151	7.76298	-124.995	-84.5317	-7.95131	-158.1	-100.763	46.7056	-146.53	-106.454	24.2663	-132.758	-111.558	3.79566	-180.989	-83.6193	80.7215	-189.408	-83.3012	107.9	-188.702	-47.8987	94.2444	
97	0.808333	-152.67	-28.1192	105.382	-122.423	-22.5562	91.0417	-104.774	-21.8824	71.2947	-89.0621	-29.0019	47.8724	-152.628	-36.6503	34.6781	-119.968	-35.3202	19.6806	-91.3952	-37.2486	33.3247	-156.618	-65.3089	29.153	-134.683	-63.5514	4.03821	-105.605	-61.447	-5.03533	-157.525	-81.4829	33.398	-142.11	-87.4091	9.97921	-118.579	-84.8179	-7.49953	-152.45	-99.886	48.4429	-141.461	-103.778	24.2266	-127.464	-108.737	2.45685	-177.381	-79.7068	81.0768	-183.312	-82.3075	113.006	-182.83	-50.5989	91.3703	
98	0.816667	-150.638	-23.3084	106.321	-118.356	-18.1163	93.2065	-99.4266	-18.5772	68.7903	-88.1563	-28.4644	51.2322	-147.627	-37.8809	35.2938	-116.494	-34.5712	21.8757	-89.4416	-36.2654	32.0724	-152.785	-62.3373	28.6946	-134.184	-60.8517	7.0355	-99.1928	-59.8915	-4.04389	-153.075	-81.7779	33.8535	-138.866	-86.4105	11.9061	-116.988	-81.9402	-6.10169	-148.151	-97.9704	49.3601	-137.709	-101.692	25.5142	-123.732	-107.152	1.79497	-172.731	-80.2859	81.1372	-180.441	-82.0036	112.887	-180.492	-46.975	95.9653	
